{
  "source": "C:\\Users\\Peter\\Desktop\\stuff\\MIUN\\quantitative_research\\video_compression\\videos\\UVG\\Beauty_1920x1080_120fps_420_8bit_YUV.y4m",
  "output": "C:\\Users\\Peter\\Desktop\\stuff\\MIUN\\quantitative_research\\video_compression\\compressed_videos\\UVG\\hevc\\3\\Beauty_1920x1080_120fps_420_8bit_YUV_hevc.mp4",
  "codec": "hevc",
  "ok": "[yuv4mpegpipe @ 00000184098766c0] Stream #0: not enough frames to estimate rate; consider increasing probesize\nInput #0, yuv4mpegpipe, from 'C:\\Users\\Peter\\Desktop\\stuff\\MIUN\\quantitative_research\\video_compression\\videos\\UVG\\Beauty_1920x1080_120fps_420_8bit_YUV.y4m':\n  Duration: 00:00:05.00, start: 0.000000, bitrate: 2985989 kb/s\n  Stream #0:0: Video: rawvideo (I420 / 0x30323449), yuv420p(progressive), 1920x1080, 120 fps, 120 tbr, 120 tbn\n[out#0/mp4 @ 000001840987b640] Codec AVOption b:a (set bitrate (in bits/s)) has not been used for any stream. The most likely reason is either wrong type (e.g. a video option with no video streams) or that it is a private option of some decoder which was not actually used for any stream.\nStream mapping:\n  Stream #0:0 -> #0:0 (rawvideo (native) -> hevc (libx265))\nPress [q] to stop, [?] for help\n[libx265 @ 000001840987cac0] Unknown option: \"aq-mode.\nx265 [info]: HEVC encoder version 4.1+190-8f11c33ac\nx265 [info]: build info [Windows][GCC 15.1.0][64 bit] 10bit\nx265 [info]: using cpu capabilities: MMX2 SSE2Fast LZCNT SSSE3 SSE4.2 AVX FMA3 BMI2 AVX2\nx265 [info]: Main 10 profile, Level-5 (Main tier)\nx265 [info]: Thread pool created using 12 threads\nx265 [info]: Slices                              : 1\nx265 [info]: frame threads / pool features       : 3 / wpp(17 rows)\nx265 [info]: Coding QT: max CU size, min CU size : 64 / 8\nx265 [info]: Residual QT: max TU size, max depth : 32 / 1 inter / 1 intra\nx265 [info]: ME / range / subpel / merge         : star / 57 / 3 / 3\nx265 [info]: Keyframe min / max / scenecut / bias  : 25 / 250 / 40 / 5.00 \nx265 [info]: Lookahead / bframes / badapt        : 25 / 4 / 2\nx265 [info]: b-pyramid / weightp / weightb       : 1 / 1 / 0\nx265 [info]: References / ref-limit  cu / depth  : 4 / on / on\nx265 [info]: AQ: mode / str / qg-size / cu-tree  : 2 / 1.0 / 32 / 1\nx265 [info]: Rate Control / qCompress            : ABR-3000 kbps / 0.60\nx265 [info]: VBV/HRD buffer / max-rate / init    : 3000 / 3000 / 0.750\nx265 [info]: tools: rect limit-modes rd=4 psy-rd=2.00 rdoq=2 psy-rdoq=1.00\nx265 [info]: tools: rskip mode=1 signhide tmvp strong-intra-smoothing lslices=4\nx265 [info]: tools: deblock sao dhdr10-info\nOutput #0, mp4, to 'C:\\Users\\Peter\\Desktop\\stuff\\MIUN\\quantitative_research\\video_compression\\compressed_videos\\UVG\\hevc\\3\\Beauty_1920x1080_120fps_420_8bit_YUV_hevc.mp4':\n  Metadata:\n    encoder         : Lavf62.3.100\n  Stream #0:0: Video: hevc (hev1 / 0x31766568), yuv420p10le(tv, progressive), 1920x1080, q=2-31, 3000 kb/s, 120 fps, 15360 tbn\n    Metadata:\n      encoder         : Lavc62.11.100 libx265\n    Side data:\n      cpb: bitrate max/min/avg: 3000000/0/3000000 buffer size: 3000000 vbv_delay: N/A\nframe=    0 fps=0.0 q=0.0 size=       0KiB time=N/A bitrate=N/A speed=N/A elapsed=0:00:00.51    \nframe=    5 fps=4.9 q=51.0 size=       0KiB time=00:00:00.02 bitrate=  14.1kbits/s speed=0.0243x elapsed=0:00:01.02    \nframe=   10 fps=6.4 q=42.8 size=       0KiB time=00:00:00.06 bitrate=   5.3kbits/s speed=0.043x elapsed=0:00:01.55    \nframe=   15 fps=7.3 q=41.9 size=       0KiB time=00:00:00.10 bitrate=   3.2kbits/s speed=0.0524x elapsed=0:00:02.06    \nframe=   20 fps=7.7 q=41.0 size=       0KiB time=00:00:00.15 bitrate=   2.3kbits/s speed=0.0581x elapsed=0:00:02.58    \nframe=   24 fps=7.7 q=41.1 size=       0KiB time=00:00:00.18 bitrate=   1.9kbits/s speed=0.0591x elapsed=0:00:03.10    \nframe=   29 fps=8.0 q=41.0 size=       0KiB time=00:00:00.22 bitrate=   1.6kbits/s speed=0.0623x elapsed=0:00:03.60    \nframe=   33 fps=8.0 q=39.2 size=       0KiB time=00:00:00.25 bitrate=   1.4kbits/s speed=0.0626x elapsed=0:00:04.12    \nframe=   37 fps=8.0 q=36.5 size=       0KiB time=00:00:00.29 bitrate=   1.2kbits/s speed=0.0628x elapsed=0:00:04.64    \nframe=   42 fps=8.1 q=35.9 size=       0KiB time=00:00:00.33 bitrate=   1.1kbits/s speed=0.0645x elapsed=0:00:05.16    \nframe=   46 fps=8.1 q=40.3 size=       0KiB time=00:00:00.36 bitrate=   1.0kbits/s speed=0.0646x elapsed=0:00:05.67    \nframe=   52 fps=8.4 q=36.3 size=       0KiB time=00:00:00.41 bitrate=   0.8kbits/s speed=0.0672x elapsed=0:00:06.19    \nframe=   57 fps=8.5 q=36.1 size=       0KiB time=00:00:00.45 bitrate=   0.8kbits/s speed=0.0683x elapsed=0:00:06.71    \nframe=   63 fps=8.7 q=38.3 size=       0KiB time=00:00:00.50 bitrate=   0.7kbits/s speed=0.0704x elapsed=0:00:07.21    \nframe=   69 fps=8.9 q=39.0 size=       0KiB time=00:00:00.55 bitrate=   0.6kbits/s speed=0.0722x elapsed=0:00:07.73    \nframe=   74 fps=9.0 q=38.7 size=       0KiB time=00:00:00.60 bitrate=   0.6kbits/s speed=0.0727x elapsed=0:00:08.25    \nframe=   79 fps=9.0 q=38.8 size=       0KiB time=00:00:00.64 bitrate=   0.5kbits/s speed=0.0732x elapsed=0:00:08.76    \nframe=   84 fps=9.0 q=39.2 size=       0KiB time=00:00:00.68 bitrate=   0.5kbits/s speed=0.0736x elapsed=0:00:09.28    \nframe=   89 fps=9.1 q=39.2 size=       0KiB time=00:00:00.72 bitrate=   0.5kbits/s speed=0.0739x elapsed=0:00:09.80    \nframe=   93 fps=9.0 q=37.8 size=     256KiB time=00:00:00.75 bitrate=2765.9kbits/s speed=0.0735x elapsed=0:00:10.32    \nframe=   97 fps=9.0 q=36.0 size=     256KiB time=00:00:00.79 bitrate=2649.5kbits/s speed=0.0731x elapsed=0:00:10.83    \nframe=  101 fps=8.9 q=39.4 size=     256KiB time=00:00:00.82 bitrate=2542.4kbits/s speed=0.0727x elapsed=0:00:11.34    \nframe=  105 fps=8.9 q=39.1 size=     256KiB time=00:00:00.85 bitrate=2443.7kbits/s speed=0.0724x elapsed=0:00:11.85    \nframe=  110 fps=8.9 q=39.2 size=     256KiB time=00:00:00.90 bitrate=2330.6kbits/s speed=0.0727x elapsed=0:00:12.37    \nframe=  115 fps=8.9 q=39.3 size=     256KiB time=00:00:00.94 bitrate=2227.4kbits/s speed=0.073x elapsed=0:00:12.89    \nframe=  119 fps=8.9 q=39.6 size=     256KiB time=00:00:00.97 bitrate=2151.3kbits/s speed=0.0727x elapsed=0:00:13.40    \nframe=  124 fps=8.9 q=40.0 size=     256KiB time=00:00:01.01 bitrate=2063.1kbits/s speed=0.073x elapsed=0:00:13.92    \nframe=  129 fps=8.9 q=40.0 size=     256KiB time=00:00:01.05 bitrate=1981.9kbits/s speed=0.0732x elapsed=0:00:14.45    \nframe=  133 fps=8.9 q=37.9 size=     256KiB time=00:00:01.09 bitrate=1921.4kbits/s speed=0.073x elapsed=0:00:14.95    \nframe=  137 fps=8.9 q=36.0 size=     256KiB time=00:00:01.12 bitrate=1864.4kbits/s speed=0.0727x elapsed=0:00:15.47    \nframe=  142 fps=8.9 q=35.9 size=     256KiB time=00:00:01.16 bitrate=1797.9kbits/s speed=0.073x elapsed=0:00:15.98    \nframe=  147 fps=8.9 q=35.9 size=     256KiB time=00:00:01.20 bitrate=1735.9kbits/s speed=0.0732x elapsed=0:00:16.51    \nframe=  152 fps=8.9 q=35.6 size=     256KiB time=00:00:01.25 bitrate=1678.0kbits/s speed=0.0733x elapsed=0:00:17.04    \nframe=  157 fps=8.9 q=34.9 size=     256KiB time=00:00:01.29 bitrate=1623.9kbits/s speed=0.0736x elapsed=0:00:17.55    \nframe=  161 fps=8.9 q=38.1 size=     256KiB time=00:00:01.32 bitrate=1583.0kbits/s speed=0.0734x elapsed=0:00:18.06    \nframe=  165 fps=8.9 q=37.9 size=     256KiB time=00:00:01.35 bitrate=1544.2kbits/s speed=0.0731x elapsed=0:00:18.58    \nframe=  170 fps=8.9 q=38.1 size=     256KiB time=00:00:01.40 bitrate=1498.2kbits/s speed=0.0733x elapsed=0:00:19.09    \nframe=  175 fps=8.9 q=38.6 size=     256KiB time=00:00:01.44 bitrate=1454.9kbits/s speed=0.0735x elapsed=0:00:19.61    \nframe=  179 fps=8.9 q=39.1 size=     512KiB time=00:00:01.47 bitrate=2843.8kbits/s speed=0.0733x elapsed=0:00:20.13    \nframe=  183 fps=8.9 q=37.2 size=     512KiB time=00:00:01.50 bitrate=2781.0kbits/s speed=0.0731x elapsed=0:00:20.63    \nframe=  186 fps=8.8 q=38.7 size=     512KiB time=00:00:01.53 bitrate=2735.6kbits/s speed=0.0725x elapsed=0:00:21.15    \nframe=  189 fps=8.7 q=38.4 size=     512KiB time=00:00:01.55 bitrate=2691.8kbits/s speed=0.0719x elapsed=0:00:21.68    \nframe=  193 fps=8.7 q=37.3 size=     512KiB time=00:00:01.59 bitrate=2635.4kbits/s speed=0.0717x elapsed=0:00:22.18    \nframe=  196 fps=8.6 q=39.0 size=     512KiB time=00:00:01.61 bitrate=2594.6kbits/s speed=0.0712x elapsed=0:00:22.70    \nframe=  199 fps=8.6 q=38.6 size=     512KiB time=00:00:01.64 bitrate=2555.1kbits/s speed=0.0707x elapsed=0:00:23.22    \nframe=  203 fps=8.6 q=37.4 size=     512KiB time=00:00:01.67 bitrate=2504.3kbits/s speed=0.0706x elapsed=0:00:23.74    \nframe=  206 fps=8.5 q=38.7 size=     512KiB time=00:00:01.70 bitrate=2467.4kbits/s speed=0.0701x elapsed=0:00:24.25    \nframe=  209 fps=8.4 q=38.7 size=     512KiB time=00:00:01.72 bitrate=2431.7kbits/s speed=0.0696x elapsed=0:00:24.77    \nframe=  212 fps=8.4 q=35.6 size=     512KiB time=00:00:01.75 bitrate=2396.9kbits/s speed=0.0692x elapsed=0:00:25.29    \nframe=  215 fps=8.3 q=38.7 size=     512KiB time=00:00:01.77 bitrate=2363.2kbits/s speed=0.0688x elapsed=0:00:25.79    \nframe=  219 fps=8.3 q=38.8 size=     512KiB time=00:00:01.80 bitrate=2319.6kbits/s speed=0.0687x elapsed=0:00:26.31    \nframe=  222 fps=8.3 q=35.6 size=     512KiB time=00:00:01.83 bitrate=2288.0kbits/s speed=0.0683x elapsed=0:00:26.83    \nframe=  225 fps=8.2 q=38.8 size=     512KiB time=00:00:01.85 bitrate=2257.2kbits/s speed=0.068x elapsed=0:00:27.34    \nframe=  229 fps=8.2 q=39.0 size=     512KiB time=00:00:01.89 bitrate=2217.4kbits/s speed=0.0679x elapsed=0:00:27.86    \nframe=  234 fps=8.2 q=39.2 size=     512KiB time=00:00:01.93 bitrate=2169.7kbits/s speed=0.0681x elapsed=0:00:28.37    \nframe=  237 fps=8.2 q=35.6 size=     512KiB time=00:00:01.95 bitrate=2142.0kbits/s speed=0.0678x elapsed=0:00:28.88    \nframe=  243 fps=8.3 q=37.9 size=     512KiB time=00:00:02.00 bitrate=2088.6kbits/s speed=0.0683x elapsed=0:00:29.40    \nframe=  249 fps=8.3 q=39.4 size=     512KiB time=00:00:02.05 bitrate=2037.9kbits/s speed=0.0688x elapsed=0:00:29.92    \nframe=  255 fps=8.4 q=39.4 size=     512KiB time=00:00:02.10 bitrate=1989.6kbits/s speed=0.0693x elapsed=0:00:30.43    \nframe=  260 fps=8.4 q=39.5 size=     768KiB time=00:00:02.15 bitrate=2926.4kbits/s speed=0.0694x elapsed=0:00:30.95    \nframe=  265 fps=8.4 q=39.3 size=     768KiB time=00:00:02.19 bitrate=2870.8kbits/s speed=0.0696x elapsed=0:00:31.47    \nframe=  270 fps=8.4 q=39.3 size=     768KiB time=00:00:02.23 bitrate=2817.2kbits/s speed=0.0698x elapsed=0:00:31.98    \nframe=  275 fps=8.5 q=39.3 size=     768KiB time=00:00:02.27 bitrate=2765.6kbits/s speed=0.07x elapsed=0:00:32.49    \nframe=  279 fps=8.4 q=39.3 size=     768KiB time=00:00:02.30 bitrate=2725.7kbits/s speed=0.0699x elapsed=0:00:33.02    \nframe=  284 fps=8.5 q=39.3 size=     768KiB time=00:00:02.35 bitrate=2677.4kbits/s speed=0.0701x elapsed=0:00:33.53    \nframe=  290 fps=8.5 q=39.4 size=     768KiB time=00:00:02.40 bitrate=2621.6kbits/s speed=0.0705x elapsed=0:00:34.05    \nframe=  295 fps=8.5 q=39.3 size=     768KiB time=00:00:02.44 bitrate=2576.8kbits/s speed=0.0706x elapsed=0:00:34.56    \nframe=  300 fps=8.5 q=39.2 size=     768KiB time=00:00:02.48 bitrate=2533.6kbits/s speed=0.0708x elapsed=0:00:35.09    \nframe=  306 fps=8.6 q=39.5 size=     768KiB time=00:00:02.53 bitrate=2483.6kbits/s speed=0.0712x elapsed=0:00:35.59    \nframe=  311 fps=8.6 q=39.7 size=     768KiB time=00:00:02.57 bitrate=2443.4kbits/s speed=0.0713x elapsed=0:00:36.10    \nframe=  316 fps=8.6 q=39.5 size=     768KiB time=00:00:02.61 bitrate=2404.5kbits/s speed=0.0714x elapsed=0:00:36.62    \nframe=  322 fps=8.7 q=35.4 size=     768KiB time=00:00:02.66 bitrate=2359.4kbits/s speed=0.0718x elapsed=0:00:37.14    \nframe=  328 fps=8.7 q=37.6 size=     768KiB time=00:00:02.71 bitrate=2316.0kbits/s speed=0.0721x elapsed=0:00:37.65    \nframe=  334 fps=8.7 q=38.9 size=     768KiB time=00:00:02.76 bitrate=2274.1kbits/s speed=0.0725x elapsed=0:00:38.17    \nframe=  339 fps=8.8 q=39.0 size=    1024KiB time=00:00:02.80 bitrate=2987.2kbits/s speed=0.0726x elapsed=0:00:38.69    \nframe=  345 fps=8.8 q=38.9 size=    1024KiB time=00:00:02.85 bitrate=2934.9kbits/s speed=0.0729x elapsed=0:00:39.20    \nframe=  351 fps=8.8 q=39.2 size=    1024KiB time=00:00:02.90 bitrate=2884.5kbits/s speed=0.0732x elapsed=0:00:39.72    \nframe=  356 fps=8.8 q=39.2 size=    1024KiB time=00:00:02.95 bitrate=2843.7kbits/s speed=0.0733x elapsed=0:00:40.23    \nframe=  362 fps=8.9 q=35.3 size=    1024KiB time=00:00:03.00 bitrate=2796.3kbits/s speed=0.0736x elapsed=0:00:40.75    \nframe=  368 fps=8.9 q=37.8 size=    1024KiB time=00:00:03.05 bitrate=2750.5kbits/s speed=0.0739x elapsed=0:00:41.26    \nframe=  374 fps=8.9 q=38.9 size=    1024KiB time=00:00:03.10 bitrate=2706.1kbits/s speed=0.0742x elapsed=0:00:41.79    \nframe=  379 fps=9.0 q=38.9 size=    1024KiB time=00:00:03.14 bitrate=2670.2kbits/s speed=0.0743x elapsed=0:00:42.29    \nframe=  385 fps=9.0 q=38.9 size=    1024KiB time=00:00:03.19 bitrate=2628.4kbits/s speed=0.0745x elapsed=0:00:42.82    \nframe=  390 fps=9.0 q=39.2 size=    1024KiB time=00:00:03.23 bitrate=2594.5kbits/s speed=0.0746x elapsed=0:00:43.32    \nframe=  395 fps=9.0 q=39.0 size=    1024KiB time=00:00:03.27 bitrate=2561.5kbits/s speed=0.0747x elapsed=0:00:43.84    \nframe=  400 fps=9.0 q=39.0 size=    1024KiB time=00:00:03.31 bitrate=2529.3kbits/s speed=0.0747x elapsed=0:00:44.37    \nframe=  406 fps=9.0 q=39.1 size=    1024KiB time=00:00:03.36 bitrate=2491.8kbits/s speed=0.075x elapsed=0:00:44.88    \nframe=  411 fps=9.1 q=39.2 size=    1024KiB time=00:00:03.40 bitrate=2461.3kbits/s speed=0.0751x elapsed=0:00:45.38    \nframe=  417 fps=9.1 q=35.5 size=    1024KiB time=00:00:03.45 bitrate=2425.7kbits/s speed=0.0753x elapsed=0:00:45.91    \nframe=  422 fps=9.1 q=35.5 size=    1280KiB time=00:00:03.50 bitrate=2996.0kbits/s speed=0.0754x elapsed=0:00:46.42    \nframe=  428 fps=9.1 q=37.5 size=    1280KiB time=00:00:03.55 bitrate=2953.8kbits/s speed=0.0756x elapsed=0:00:46.94    \nframe=  434 fps=9.1 q=38.9 size=    1280KiB time=00:00:03.60 bitrate=2912.8kbits/s speed=0.0759x elapsed=0:00:47.45    \nframe=  439 fps=9.2 q=39.0 size=    1280KiB time=00:00:03.64 bitrate=2879.5kbits/s speed=0.0759x elapsed=0:00:47.96    \nframe=  444 fps=9.2 q=39.2 size=    1280KiB time=00:00:03.68 bitrate=2846.9kbits/s speed=0.076x elapsed=0:00:48.48    \nframe=  450 fps=9.2 q=39.3 size=    1280KiB time=00:00:03.73 bitrate=2808.8kbits/s speed=0.0762x elapsed=0:00:49.00    \nframe=  455 fps=9.2 q=39.4 size=    1280KiB time=00:00:03.77 bitrate=2777.8kbits/s speed=0.0762x elapsed=0:00:49.51    \nframe=  462 fps=9.2 q=35.5 size=    1280KiB time=00:00:03.83 bitrate=2735.5kbits/s speed=0.0766x elapsed=0:00:50.04    \nframe=  469 fps=9.3 q=39.3 size=    1280KiB time=00:00:03.89 bitrate=2694.5kbits/s speed=0.077x elapsed=0:00:50.54    \nframe=  475 fps=9.3 q=39.2 size=    1280KiB time=00:00:03.94 bitrate=2660.3kbits/s speed=0.0772x elapsed=0:00:51.05    \nframe=  481 fps=9.3 q=39.2 size=    1280KiB time=00:00:03.99 bitrate=2627.0kbits/s speed=0.0774x elapsed=0:00:51.58    \nframe=  487 fps=9.3 q=35.4 size=    1280KiB time=00:00:04.04 bitrate=2594.5kbits/s speed=0.0776x elapsed=0:00:52.09    \nframe=  494 fps=9.4 q=39.5 size=    1280KiB time=00:00:04.10 bitrate=2557.6kbits/s speed=0.0779x elapsed=0:00:52.61    \nframe=  501 fps=9.4 q=39.2 size=    1536KiB time=00:00:04.15 bitrate=3026.0kbits/s speed=0.0783x elapsed=0:00:53.13    \nframe=  508 fps=9.5 q=37.7 size=    1536KiB time=00:00:04.21 bitrate=2984.2kbits/s speed=0.0786x elapsed=0:00:53.64    \nframe=  514 fps=9.5 q=39.0 size=    1536KiB time=00:00:04.26 bitrate=2949.2kbits/s speed=0.0788x elapsed=0:00:54.15    \nframe=  520 fps=9.5 q=38.9 size=    1536KiB time=00:00:04.31 bitrate=2915.0kbits/s speed=0.079x elapsed=0:00:54.67    \nframe=  527 fps=9.5 q=35.6 size=    1536KiB time=00:00:04.37 bitrate=2876.2kbits/s speed=0.0793x elapsed=0:00:55.19    \nframe=  534 fps=9.6 q=39.1 size=    1536KiB time=00:00:04.43 bitrate=2838.3kbits/s speed=0.0796x elapsed=0:00:55.70    \nframe=  541 fps=9.6 q=39.2 size=    1536KiB time=00:00:04.49 bitrate=2801.5kbits/s speed=0.0799x elapsed=0:00:56.22    \nframe=  548 fps=9.7 q=37.6 size=    1536KiB time=00:00:04.55 bitrate=2765.6kbits/s speed=0.0802x elapsed=0:00:56.74    \nframe=  554 fps=9.7 q=39.0 size=    1536KiB time=00:00:04.60 bitrate=2735.5kbits/s speed=0.0804x elapsed=0:00:57.24    \nframe=  560 fps=9.7 q=39.0 size=    1536KiB time=00:00:04.65 bitrate=2706.1kbits/s speed=0.0805x elapsed=0:00:57.76    \nframe=  566 fps=9.7 q=39.0 size=    1536KiB time=00:00:04.70 bitrate=2677.3kbits/s speed=0.0806x elapsed=0:00:58.27    \nframe=  572 fps=9.7 q=35.5 size=    1536KiB time=00:00:04.75 bitrate=2649.1kbits/s speed=0.0808x elapsed=0:00:58.79    \nframe=  577 fps=9.7 q=35.6 size=    1536KiB time=00:00:04.79 bitrate=2626.1kbits/s speed=0.0808x elapsed=0:00:59.31    \nframe=  584 fps=9.8 q=39.0 size=    1536KiB time=00:00:04.85 bitrate=2594.5kbits/s speed=0.0811x elapsed=0:00:59.83    \nframe=  589 fps=9.8 q=39.1 size=    1536KiB time=00:00:04.89 bitrate=2572.4kbits/s speed=0.0811x elapsed=0:01:00.34    \nframe=  595 fps=9.8 q=38.9 size=    1792KiB time=00:00:04.94 bitrate=2970.7kbits/s speed=0.0812x elapsed=0:01:00.85    \n[mp4 @ 000001840987b780] Starting second pass: moving the moov atom to the beginning of the file\n[out#0/mp4 @ 000001840987b640] video:1821KiB audio:0KiB subtitle:0KiB other streams:0KiB global headers:2KiB muxing overhead: 0.549242%\nframe=  600 fps=9.8 q=39.2 Lsize=    1831KiB time=00:00:04.98 bitrate=3010.3kbits/s speed=0.0815x elapsed=0:01:01.11    \nx265 [info]: frame I:      3, Avg QP:38.49  kb/s: 8870.40 \nx265 [info]: frame P:    118, Avg QP:35.85  kb/s: 6509.56 \nx265 [info]: frame B:    479, Avg QP:39.04  kb/s: 2073.68 \nx265 [info]: Weighted P-Frames: Y:0.0% UV:0.0%\n\nencoded 600 frames in 61.05s (9.83 fps), 2980.05 kb/s, Avg QP:38.41\n",
  "seconds": 61.21633696556091,
  "probe_out": {}
}